# xmcd
#
# Track frame offsets: 
#        150
#        13661
#        30922
#        45464
#        61938
#        78292
#        93924
#        106927
#        125304
#        143661
#        165225
#        183000
#        204785
#
# Disc length: 2908 seconds
#
# Revision: 0
# Processed by: cddbd v1.5.2PL0 Copyright (c) Steve Scherf et al.
# Submitted via: ExactAudioCopy v0.95b4
#
DISCID=880b5a0d
DTITLE=McEntire, Reba - keep on loving you
DYEAR=2009
DGENRE=Folk
TTITLE0=strange
TTITLE1=just when i thought i'd stopped loving you
TTITLE2=i keep on lovin' you
TTITLE3=i want a cowboy
TTITLE4=consider me gone
TTITLE5=but why
TTITLE6=pink guitar
TTITLE7=she's turning 50 today
TTITLE8=eight crazy hours (in the story of love)
TTITLE9=nothing to lose
TTITLE10=over you
TTITLE11=maggie creek road
TTITLE12=i'll have what she's having
EXTD=
EXTT0=
EXTT1=
EXTT2=
EXTT3=
EXTT4=
EXTT5=
EXTT6=
EXTT7=
EXTT8=
EXTT9=
EXTT10=
EXTT11=
EXTT12=
PLAYORDER=
